<svg height="682pt" viewBox="-24 -21 682 682.66635" width="682pt" xmlns="http://www.w3.org/2000/svg"><path d="m355.792969 465.957031c-11.25 8.632813-24.742188 12.953125-38.222657 12.953125-13.488281 0-26.96875-4.316406-38.222656-12.953125l-54.210937-41.601562-197.699219 215.644531h580.261719l-197.699219-215.644531zm0 0"/><path d="m.167969 251.714844v361.976562l194.804687-212.484375zm0 0"/><path d="m634.972656 613.691406v-361.976562l-194.804687 149.492187zm0 0"/><path d="m480.546875 232.859375h-325.953125v89.617187l147.8125 113.429688c8.925781 6.851562 21.398438 6.851562 30.324219 0l147.816406-113.429688zm-121.480469 148.378906h-82.996094c-10.460937 0-18.9375-8.480469-18.9375-18.9375 0-10.460937 8.476563-18.941406 18.9375-18.941406h82.996094c10.460938 0 18.941406 8.480469 18.941406 18.941406 0 10.457031-8.480468 18.9375-18.941406 18.9375zm33.140625-72.855469h-149.277343c-10.457032 0-18.941407-8.476562-18.941407-18.941406 0-10.457031 8.484375-18.933594 18.941407-18.933594h149.277343c10.460938 0 18.941407 8.476563 18.941407 18.933594 0 10.464844-8.480469 18.941406-18.941407 18.941406zm0 0"/><path d="m116.714844 213.921875c0-10.460937 8.480468-18.9375 18.941406-18.9375h363.828125c10.460937 0 18.9375 8.476563 18.9375 18.9375v79.480469l97.84375-75.078125-287.363281-214.558594c-6.722656-5.019531-15.941406-5.019531-22.667969 0l-287.355469 214.558594 97.835938 75.078125zm0 0"/></svg>