<svg id="Capa_1" enable-background="new 0 0 512 512" height="512" viewBox="0 0 512 512" width="512" xmlns="http://www.w3.org/2000/svg">
<g>
<path d="m45 512c24.814 0 45-20.186 45-45 0-19.53-12.578-36.024-30-42.237v-32.763h90v32.763c-17.422 6.213-30 22.707-30 42.237 0 24.814 20.186 45 45 45s45-20.186 45-45c0-19.53-12.578-36.024-30-42.237v-62.763h-60v-30h272v30h-60v62.763c-17.422 6.213-30 22.707-30 42.237 0 24.814 20.186 45 45 45s45-20.186 45-45c0-19.53-12.578-36.024-30-42.237v-32.763h90v32.763c-17.422 6.213-30 22.707-30 42.237 0 24.814 20.186 45 45 45s45-20.186 45-45c0-19.53-12.578-36.024-30-42.237v-62.763h-60v-60h-332v60h-60v62.763c-17.422 6.213-30 22.707-30 42.237 0 24.814 20.186 45 45 45z"/>
<path d="m181 107c0 27.656 15.132 52.969 39.492 66.064 12.466 6.724 20.508 21.534 20.508 37.735v31.201h-30v30h90v-30h-30v-31.201c0-16.201 8.042-31.011 20.493-37.72 24.375-13.11 39.507-38.423 39.507-66.079v-47h30v-30h-30v-30h-150v30h-30v30h30z"/>
</g></svg>